<svg width="101" height="101" viewBox="0 0 101 101" fill="none" xmlns="http://www.w3.org/2000/svg">
<mask id="path-1-inside-1_31_387" fill="white">
<path fill-rule="evenodd" clip-rule="evenodd" d="M55.626 90.0933C80.4502 90.0933 100.574 70.0604 100.574 45.3486C100.574 20.6368 80.4502 0.603882 55.626 0.603882C30.8018 0.603882 10.6778 20.6368 10.6778 45.3486C10.6778 54.6425 13.5242 63.2745 18.3966 70.428L0.574219 100.604L41.0225 87.6788C45.6012 89.2438 50.5139 90.0933 55.626 90.0933Z"/>
</mask>
<path fill-rule="evenodd" clip-rule="evenodd" d="M55.626 90.0933C80.4502 90.0933 100.574 70.0604 100.574 45.3486C100.574 20.6368 80.4502 0.603882 55.626 0.603882C30.8018 0.603882 10.6778 20.6368 10.6778 45.3486C10.6778 54.6425 13.5242 63.2745 18.3966 70.428L0.574219 100.604L41.0225 87.6788C45.6012 89.2438 50.5139 90.0933 55.626 90.0933Z" fill="white"/>
<path d="M18.3966 70.428L20.1187 71.4451L20.7644 70.3517L20.0496 69.3022L18.3966 70.428ZM0.574219 100.604L-1.14785 99.5868L-3.81749 104.107L1.18299 102.509L0.574219 100.604ZM41.0225 87.6788L41.6693 85.7863L41.0436 85.5724L40.4137 85.7737L41.0225 87.6788ZM98.5742 45.3486C98.5742 68.9473 79.3542 88.0933 55.626 88.0933V92.0933C81.5462 92.0933 102.574 71.1735 102.574 45.3486H98.5742ZM55.626 2.60388C79.3542 2.60388 98.5742 21.7499 98.5742 45.3486H102.574C102.574 19.5237 81.5462 -1.39612 55.626 -1.39612V2.60388ZM12.6778 45.3486C12.6778 21.7499 31.8978 2.60388 55.626 2.60388V-1.39612C29.7058 -1.39612 8.67781 19.5237 8.67781 45.3486H12.6778ZM20.0496 69.3022C15.3958 62.4696 12.6778 54.2277 12.6778 45.3486H8.67781C8.67781 55.0572 11.6526 64.0795 16.7436 71.5539L20.0496 69.3022ZM2.29629 101.621L20.1187 71.4451L16.6745 69.411L-1.14785 99.5868L2.29629 101.621ZM40.4137 85.7737L-0.0345494 98.6988L1.18299 102.509L41.6312 89.5839L40.4137 85.7737ZM55.626 88.0933C50.7368 88.0933 46.0425 87.281 41.6693 85.7863L40.3756 89.5713C45.1599 91.2065 50.2911 92.0933 55.626 92.0933V88.0933Z" fill="black" mask="url(#path-1-inside-1_31_387)"/>
</svg>
