<svg width="101" height="101" viewBox="0 0 101 101" fill="none" xmlns="http://www.w3.org/2000/svg">
<path d="M44.5975 23.1039C44.5975 34.972 34.9136 44.6039 22.9545 44.6039C10.9954 44.6039 1.31152 34.972 1.31152 23.1039C1.31152 11.2357 10.9954 1.60388 22.9545 1.60388C34.9136 1.60388 44.5975 11.2357 44.5975 23.1039Z" fill="white" stroke="black" stroke-width="2"/>
<path d="M99.3115 78.1039C99.3115 89.972 89.6276 99.6039 77.6685 99.6039C65.7094 99.6039 56.0255 89.972 56.0255 78.1039C56.0255 66.2357 65.7094 56.6039 77.6685 56.6039C89.6276 56.6039 99.3115 66.2357 99.3115 78.1039Z" fill="white" stroke="#8F8F8F" stroke-width="2"/>
<path d="M71.6367 78.1039C71.6367 89.972 61.9528 99.6039 49.9937 99.6039C38.0346 99.6039 28.3507 89.972 28.3507 78.1039C28.3507 66.2357 38.0346 56.6039 49.9937 56.6039C61.9528 56.6039 71.6367 66.2357 71.6367 78.1039Z" fill="white" stroke="#8F8F8F" stroke-width="2"/>
<path d="M62.6051 23.1039L62.6051 24.1007L62.6051 24.1007L62.6051 23.1039ZM72.6367 33.0722L71.6335 33.0722V33.0722L72.6367 33.0722ZM71.9273 46.3087C72.3191 46.698 72.9543 46.698 73.346 46.3087L79.7301 39.965C80.1219 39.5757 80.1219 38.9445 79.7301 38.5552C79.3384 38.166 78.7032 38.166 78.3114 38.5552L72.6367 44.1942L66.9619 38.5552C66.5702 38.166 65.935 38.166 65.5433 38.5552C65.1515 38.9445 65.1515 39.5757 65.5433 39.965L71.9273 46.3087ZM49.9937 24.1007L62.6051 24.1007L62.6051 22.1071L49.9937 22.1071L49.9937 24.1007ZM71.6335 33.0722L71.6335 45.6039L73.6399 45.6039L73.6399 33.0722L71.6335 33.0722ZM62.6051 24.1007C67.5913 24.1007 71.6335 28.1174 71.6335 33.0722L73.6399 33.0722C73.6399 27.0163 68.6994 22.1071 62.6051 22.1071L62.6051 24.1007Z" fill="black"/>
</svg>
