<svg width="103" height="103" viewBox="0 0 103 103" fill="none" xmlns="http://www.w3.org/2000/svg">
<path d="M101.349 62.715V79.3817C101.349 91.6547 90.8129 101.604 77.8154 101.604H42.6419C35.1628 101.604 28.129 98.247 23.6934 92.5608L3.36229 66.4973C0.242081 62.4973 1.02279 56.8847 5.13109 53.7813C9.31723 50.619 15.3525 50.9365 19.1407 54.5183L30.7475 65.4928V57.1594H30.7706L30.7475 46.0483L30.8502 21.0483C30.8502 16.446 34.8014 12.715 39.6754 12.715C44.5495 12.715 48.5007 16.446 48.5007 21.0483V46.0483V9.93721C48.5007 5.33484 52.4519 1.60388 57.3259 1.60388C62.1999 1.60388 66.1511 5.33484 66.1511 9.93721V46.0483V15.4928C66.1511 10.8904 70.1023 7.15944 74.9764 7.15944C79.8504 7.15944 83.8016 10.8904 83.8016 15.4928V46.0483V26.6039C83.8016 22.0015 87.7528 18.2705 92.6269 18.2705C97.5009 18.2705 101.452 22.0015 101.452 26.6039L101.384 62.715H101.349Z" stroke="black" stroke-width="2" stroke-linecap="square"/>
</svg>
